<?xml version="1.0" encoding="utf-8"?>
<!-- Generator: Adobe Illustrator 23.0.1, SVG Export Plug-In . SVG Version: 6.00 Build 0)  -->
<svg version="1.1" id="Warstwa_1" xmlns="http://www.w3.org/2000/svg" xmlns:xlink="http://www.w3.org/1999/xlink" x="0px" y="0px"
	 viewBox="0 0 908.8 377.9" style="enable-background:new 0 0 908.8 377.9;" xml:space="preserve">
<style type="text/css">
	.st0{clip-path:url(#SVGID_2_);fill-rule:evenodd;clip-rule:evenodd;}
	.st1{clip-path:url(#SVGID_2_);}
	.st2{clip-path:url(#SVGID_2_);fill:none;stroke:#000000;stroke-width:3;stroke-miterlimit:10;}
</style>
<g>
	<defs>
		<rect id="SVGID_1_" width="908.8" height="377.9"/>
	</defs>
	<clipPath id="SVGID_2_">
		<use xlink:href="#SVGID_1_"  style="overflow:visible;"/>
	</clipPath>
	<path class="st0" d="M445.8,341.8c-8.8,7.7-20.2,11.1-31.9,11.2h-0.4c-23.9,0-49-14-55.7-33.8c-11-28.7-0.3-62.2-0.7-62.2
		c-0.3,0.3,23.7,13.3,33.3,15.6c9,3.7,45.5,11,60.6,27.3c15.3,17.1-0.3,37.9-0.9,37.9c-2.7-1.1-5.4-2.2-8.1-3.4
		c0.7-0.3,4.6-29.6-18.8-48.3c9,15.4,17.6,23.9,15.3,46.5c-13.6-5.1-21.4-9.2-21.4-9.1c0.2-0.1,0.4-20.3-11.4-36.6
		c5.1,17.9,7.4,27.6,7.5,33.4c-6.5-4.4-12.8-9-18.7-13.9c0,0-2.2-19.3-8.6-28.5c2,9.2,7.1,20.4,5.7,26.8
		C385,298,379,291.6,379,291.6s-0.7-12.2-3.6-18.5c0,0,2.2,10.7,1.2,16.2c-2.6-3.1-14.6-18.6-16.6-24.5c3.3,9.7,15,26.6,15.2,26.6
		c0,0.2-17-4.3-18.2-6.2c7.7,5.2,16.3,8,19.9,9.6c4.3,4.3,12.7,12.6,12.8,12.5c-0.1,0.4-26.4-4.7-30.8-9.7
		c9.5,7.7,21.7,10.1,32.8,12c8.1,6.3,17.2,13,17.2,13c0.1,0.8-39.8-0.2-50-11.5c11.3,9.8,25.8,15.2,55.3,14.8
		c7.9,5.1,17.6,8.7,17.6,8.7c0.4,0.3-36,6.5-62.7-5.5c13.7,6.9,36.5,13.3,68.4,8.9C443.4,341.5,445.8,341.8,445.8,341.8
		 M609.9,196.1c6.7,14.4,22,31.8,48.3,31.8c27.3,0,43.8-19.9,43.8-44.4c0-56.3-96.4-32.1-96.4-104c0-34,25.7-57.8,66.4-57.8
		c19.3,0,33.1,4.6,45.3,14.4c-3.7,7-5.8,14.1-8.3,25.7h-3.7c-4.3-11.3-13.5-28.8-36.4-28.8c-22.9,0-39.4,15.6-39.4,37.9
		c0,57.2,96.4,33.4,96.4,101c0,37.3-27.8,68.9-74.9,68.9c-25.4,0-39.8-8.9-50.5-17.4c3.7-9.5,4.6-15.6,5.8-27.2H609.9z M531.6,105
		c0-26.3-1.2-52.9-2.4-79.2c5.2,0.9,10.1,1.5,15,1.5c4.9,0,9.8-0.6,15-1.5c-1.2,26.3-2.4,52.9-2.4,79.2v52.6
		c0,26.3,1.2,52.9,2.4,79.2c-5.2-0.9-10.1-1.5-15-1.5c-4.9,0-9.8,0.6-15,1.5c1.2-26.3,2.4-52.9,2.4-79.2V105z M386.6,127.9
		c6.4,1.5,15,2.4,21.7,2.4c25.1,0,57.2-9.5,57.2-51.1c0-34.9-19.9-42.2-51.4-42.2h-27.5V127.9z M361.5,105c0-26.3-1.2-52.9-2.4-79.2
		c9.8,0.9,19.9,1.5,29.7,1.5c9.8,0,29.4-1.5,37.9-1.5c18.4,0,67,0.6,67,51.7c0,53.8-52.9,64.2-82.3,64.2c-9.2,0-16.8-0.3-24.8-0.9
		v16.8c0,26.3,1.2,52.9,2.4,79.2c-5.2-0.9-10.1-1.5-15-1.5c-4.9,0-9.8,0.6-15,1.5c1.2-26.3,2.4-52.9,2.4-79.2V105z M224.2,63
		l-33.3,77.7c10.7,0,22.3,0.6,33,0.6c11.3,0,22.9-0.3,34.3-0.6L224.2,63z M234.2,21.7c30,71,75.9,182.3,92.1,215.1
		c-5.5-0.9-10.7-1.5-16.2-1.5c-5.5,0-10.7,0.6-16.2,1.5c-5.8-21.1-20.5-54.8-31.5-82c-13.2-0.3-26.6-0.6-40.1-0.6
		c-12.5,0-24.8,0.3-37.3,0.6c-12.8,31.5-24.5,62.7-29.7,82c-4-0.9-7.6-1.5-11.3-1.5c-3.7,0-7.3,0.6-11.3,1.5
		c32.8-71.6,64.6-142.9,95.8-215.1H234.2z M881.8,314.1c0,3.8-1.4,6.9-4.3,9c-2.9,2.2-6.8,3.3-12,3.3c-5.3,0-9.5-1.2-12.5-3.7
		c-3-2.5-4.6-5.8-4.6-9.9v-0.6h4v0.2c0,3,1.1,5.5,3.5,7.3c2.3,1.8,5.4,2.8,9.3,2.8c3.8,0,6.9-0.8,9.1-2.2c2.2-1.5,3.3-3.5,3.3-6
		c0-2.1-0.8-3.7-2.5-4.7c-1.3-0.8-3.9-1.6-7.5-2.2l-8.5-1.5c-6.3-1.1-9.5-4.4-9.5-10c0-3.5,1.3-6.3,4.1-8.4
		c2.7-2.1,6.5-3.2,11.2-3.2c4.8,0,8.6,1.1,11.4,3.3c2.8,2.2,4.2,5.2,4.3,9h-4c-0.5-5.8-4.4-8.7-11.6-8.7c-3.5,0-6.3,0.7-8.2,2.1
		c-2,1.4-3,3.3-3,5.6c0,2,0.8,3.5,2.5,4.6c1.4,0.9,3.9,1.6,7.5,2.3l7.6,1.3c3.7,0.6,6.3,1.8,8,3.4
		C880.9,308.8,881.8,311.1,881.8,314.1 M837.7,310.3c-0.9,5-3.2,8.9-6.7,11.8c-3.6,2.9-7.9,4.3-13.2,4.3c-6.1,0-11-1.9-14.8-5.7
		c-3.7-3.8-5.5-8.9-5.5-15.4c0-6.5,1.8-11.7,5.6-15.4c3.7-3.7,8.9-5.6,15.4-5.6c5.2,0,9.4,1.3,12.7,3.8c3.3,2.5,5.2,6,5.9,10.4H833
		c-0.8-3.3-2.4-5.8-4.9-7.6c-2.5-1.8-5.7-2.7-9.6-2.7c-5.3,0-9.4,1.5-12.4,4.6c-3,3-4.5,7.3-4.5,12.6c0,5.3,1.4,9.4,4.4,12.5
		c2.9,3.1,6.8,4.6,11.7,4.6c4,0,7.4-1.1,10.3-3.3c2.9-2.2,4.7-5.1,5.5-8.9H837.7z M784.2,325.4h-4v-40h4V325.4z M784.2,325.4v-40
		V325.4z M769.6,289h-15.4v36.4h-4V289h-15.5v-3.7h34.9V289z M726.4,325.4h-30.8v-40h30.8v3.8h-26.8v14h24.7v3.8h-24.7v14.7h26.8
		V325.4z M680.6,325.4h-3.9l0.2-36.6l-17,36.6h-4.6l-17.4-36.6l0.4,36.6h-3.9v-40h6.4l16.9,36.3l17.1-36.3h5.9V325.4z M620.8,314.1
		c0,3.8-1.4,6.9-4.3,9c-2.9,2.2-6.8,3.3-11.9,3.3c-5.3,0-9.5-1.2-12.6-3.7c-3-2.5-4.6-5.8-4.6-9.9v-0.6h4v0.2c0,3,1.2,5.5,3.5,7.3
		c2.3,1.8,5.4,2.8,9.2,2.8c3.8,0,6.9-0.8,9.1-2.2c2.2-1.5,3.3-3.5,3.3-6c0-2.1-0.8-3.7-2.5-4.7c-1.3-0.8-3.9-1.6-7.5-2.2l-8.6-1.5
		c-6.3-1.1-9.5-4.4-9.5-10c0-3.5,1.4-6.3,4.1-8.4c2.7-2.1,6.4-3.2,11.2-3.2c4.8,0,8.7,1.1,11.4,3.3c2.8,2.2,4.2,5.2,4.3,9h-4
		c-0.5-5.8-4.4-8.7-11.7-8.7c-3.5,0-6.2,0.7-8.2,2.1c-2,1.4-3,3.3-3,5.6c0,2,0.9,3.5,2.5,4.6c1.4,0.9,3.9,1.6,7.5,2.3l7.6,1.3
		c3.7,0.6,6.3,1.8,8,3.4C619.9,308.8,620.8,311.1,620.8,314.1 M571.8,305.3c0-5.4-1.5-9.6-4.5-12.6c-3-3-7.1-4.6-12.4-4.6
		c-5.3,0-9.4,1.5-12.4,4.6c-3,3-4.5,7.3-4.5,12.6c0,5.4,1.5,9.6,4.5,12.6c3,3.1,7.1,4.6,12.4,4.6c5.3,0,9.4-1.5,12.4-4.6
		C570.3,314.9,571.8,310.7,571.8,305.3 M575.9,305.3c0,6.5-1.9,11.7-5.6,15.4c-3.8,3.7-8.9,5.6-15.4,5.6c-6.5,0-11.7-1.9-15.4-5.6
		c-3.8-3.8-5.6-8.9-5.6-15.4c0-6.5,1.9-11.7,5.6-15.4c3.7-3.8,8.9-5.6,15.4-5.6c6.5,0,11.7,1.9,15.4,5.6
		C574,293.7,575.9,298.8,575.9,305.3 M523.6,310.3c-0.9,5-3.2,8.9-6.7,11.8c-3.6,2.9-8,4.3-13.2,4.3c-6.1,0-11-1.9-14.7-5.7
		c-3.7-3.8-5.6-8.9-5.6-15.4c0-6.5,1.9-11.7,5.6-15.4c3.7-3.7,8.9-5.6,15.4-5.6c5.2,0,9.4,1.3,12.7,3.8c3.3,2.5,5.2,6,5.9,10.4h-4
		c-0.8-3.3-2.4-5.8-4.9-7.6c-2.5-1.8-5.7-2.7-9.7-2.7c-5.3,0-9.4,1.5-12.4,4.6c-3,3-4.6,7.3-4.6,12.6c0,5.3,1.5,9.4,4.4,12.5
		c2.9,3.1,6.8,4.6,11.7,4.6c4,0,7.5-1.1,10.3-3.3c2.8-2.2,4.7-5.1,5.5-8.9H523.6z M337.6,324.8h-29.1v-40h4v36.2h25.2V324.8z
		 M286.3,308.6l-9.2-20.5l-9.2,20.5H286.3z M297.7,324.8h-4l-5.6-12.4h-21.9l-5.6,12.4h-4.1l18.5-40h4.6L297.7,324.8z M242.7,296.2
		c0-2.9-0.9-4.9-2.6-6c-1.7-1.1-4.6-1.7-8.6-1.7h-14.2v15.3H232c3.8,0,6.5-0.6,8.2-1.8C241.9,300.9,242.7,299,242.7,296.2
		 M247.9,324.8h-4.6c-0.5-1.4-0.8-3.3-1-5.7c-0.3-3.8-0.4-5.8-0.4-6c-0.2-2-1-3.5-2.2-4.3c-1.2-0.8-3.1-1.2-5.7-1.2h-16.8v17.2h-4
		v-40h19.2c9.6,0,14.3,3.6,14.3,10.8c0,5.1-2.3,8.4-6.9,10c2.2,0.3,3.7,1.1,4.6,2.3c0.7,1,1.3,2.8,1.6,5.3c0.2,2.3,0.4,4.6,0.5,7
		C246.8,322.3,247.2,323.9,247.9,324.8 M198.2,310.4c0,5-1.5,8.8-4.5,11.5c-3,2.7-7.3,4-13,4c-11.6,0-17.4-5.2-17.4-15.6v-25.4h4
		v24.5c0,4.4,1.1,7.6,3.2,9.6c2.1,2,5.5,3,10.1,3c4.7,0,8.1-1,10.2-3.1c2.1-2.1,3.2-5.2,3.2-9.6v-24.5h4.1V310.4z M152.9,288.5
		h-15.5v36.4h-4v-36.4H118v-3.7h34.9V288.5z M104.8,308.6l-9.2-20.5l-9.2,20.5H104.8z M116.2,324.8h-4.1l-5.6-12.4H84.7l-5.6,12.4
		h-4.1l18.5-40H98L116.2,324.8z M64.2,324.8h-5.3l-27.8-35.9v35.9h-3.8v-40h5.1l28,35.9v-35.9h3.8V324.8z"/>
	<path class="st1" d="M791.7,59.9h-3.4c-0.7,0-1.2-0.3-1.5-0.8l-7.3-10c-0.2-0.3-0.5-0.5-0.7-0.7c-0.3-0.1-0.7-0.2-1.2-0.2h-2.9
		v11.7h-3.8V31.8h7.9c1.8,0,3.3,0.2,4.6,0.5c1.3,0.4,2.4,0.9,3.2,1.6c0.8,0.7,1.5,1.5,1.9,2.5c0.4,1,0.6,2,0.6,3.2
		c0,1-0.2,1.9-0.5,2.8c-0.3,0.9-0.8,1.6-1.4,2.3c-0.6,0.7-1.3,1.3-2.2,1.8c-0.9,0.5-1.8,0.8-2.9,1.1c0.5,0.3,0.9,0.7,1.3,1.2
		L791.7,59.9z M778.7,45.4c1.1,0,2.1-0.1,2.9-0.4c0.8-0.3,1.5-0.6,2.1-1.1c0.6-0.5,1-1.1,1.3-1.8c0.3-0.7,0.4-1.4,0.4-2.3
		c0-1.7-0.5-2.9-1.6-3.8c-1.1-0.8-2.7-1.3-4.9-1.3h-4.2v10.6H778.7z"/>
	<path class="st2" d="M804.4,45.7c0,13.3-10.8,24.2-24.2,24.2C766.9,69.8,756,59,756,45.7c0-13.3,10.8-24.2,24.2-24.2
		C793.6,21.5,804.4,32.3,804.4,45.7z"/>
</g>
</svg>
