<svg xmlns="http://www.w3.org/2000/svg" width="167.615" height="32.965" viewBox="0 0 167.615 32.965"><path d="M422.767,37.62,413.9,64.829h53.879V37.62Z" transform="translate(-300.164 -31.899)" fill="#b7202c"/><path d="M52.961,37.54H31.567L29.4,44.081h0L25.6,55.922H43.1l2.146-6.532h-9.78l1.66-5.309H50.8ZM33.783,54.466H26.064l-3.384,10.3H30.4Z" transform="translate(-22.68 -31.842)" fill="#fff"/><path d="M322.339,37.62H343.8l-2.166,6.541H327.915L326.65,48.01,336.54,48l-2.148,6.53-9.867.009L323.2,58.337h15.059l-2.16,6.5H313.37Z" transform="translate(-228.86 -31.899)" fill="#fff"/><path d="M132.076,17.94l-10.725,5.652h-.23c-4.931.314-7.605,1.169-9.2,4.974-.491,1.41-.9,2.742-.9,2.742L104.51,50.9h7.745l.689-2.215,9.472-6.823L119.421,50.9h7.724l6.823-20.664c.352-.829,1.419-4.346-1.614-5.864a9.927,9.927,0,0,0-3.954-.785l-2.169,6.564h3.835L115.61,40.608l2.192-6.594h-3.957Z" transform="translate(-80.72 -17.94)" fill="#fff"/><path d="M236.059,37.373h-7.73a3.133,3.133,0,0,0-2.082.834l-9.009,9.379-2.05-8.393a2.453,2.453,0,0,0-.59-1.291,2.225,2.225,0,0,0-1.75-.532h-5.623L198.21,64.683h7.768l5.181-15.789L213.3,60.078l11.225-11.21-5.2,15.815h7.788Z" transform="translate(-147.18 -31.721)" fill="#fff"/><g transform="translate(135.627 12.277)"><path d="M493.459,74.373a.185.185,0,0,1-.209-.209V62.517a.11.11,0,0,0-.125-.125h-3.715a.185.185,0,0,1-.209-.209V60.389a.185.185,0,0,1,.209-.209h10.146a.185.185,0,0,1,.209.209v1.794a.185.185,0,0,1-.209.209H495.84a.11.11,0,0,0-.125.125V74.167a.185.185,0,0,1-.209.209h-2.047Z" transform="translate(-489.2 -60.177)" fill="#fff"/><path d="M537.9,74.366a.25.25,0,0,1-.25-.209l-4.489-13.777q-.061-.209.166-.209h2.026a.26.26,0,0,1,.27.209l3.172,10.062h.064L541.9,60.379a.26.26,0,0,1,.27-.209H544.2q.231,0,.166.209l-4.509,13.777a.25.25,0,0,1-.25.209Z" transform="translate(-520.37 -60.17)" fill="#fff"/></g></svg>