<?xml version="1.0" standalone="no"?>
<!DOCTYPE svg PUBLIC "-//W3C//DTD SVG 20010904//EN"
 "http://www.w3.org/TR/2001/REC-SVG-20010904/DTD/svg10.dtd">
<svg version="1.0" xmlns="http://www.w3.org/2000/svg"
 width="1200.000000pt" height="1200.000000pt" viewBox="0 0 1200.000000 1200.000000"
 preserveAspectRatio="xMidYMid meet">

<g transform="translate(0.000000,1200.000000) scale(0.100000,-0.100000)"
fill="#000000" stroke="none">
<path d="M5785 11183 c-286 -37 -564 -172 -727 -352 l-53 -59 -55 15 c-79 21
-264 28 -356 14 -164 -27 -313 -96 -452 -210 -108 -88 -228 -280 -272 -431
-31 -108 -39 -319 -15 -426 39 -179 122 -333 244 -455 104 -103 211 -170 351
-218 l75 -26 2 -365 c2 -245 7 -372 14 -386 6 -12 22 -27 36 -33 17 -8 408
-11 1384 -11 l1361 0 29 29 29 29 0 369 0 368 86 29 c277 94 499 334 576 621
31 117 32 337 1 451 -87 320 -319 554 -640 646 -67 20 -100 23 -238 22 -106
-1 -177 -6 -210 -16 l-49 -14 -76 76 c-220 222 -534 342 -885 338 -71 0 -143
-3 -160 -5z m413 -212 c157 -34 299 -98 411 -186 59 -45 107 -93 100 -98 -2
-2 -25 -18 -50 -35 -70 -47 -153 -126 -205 -195 -116 -154 -204 -422 -163
-499 17 -32 74 -51 115 -38 41 14 58 44 74 128 46 256 259 481 520 549 88 23
254 23 340 0 36 -9 103 -36 150 -59 69 -34 102 -58 175 -132 73 -73 99 -107
133 -176 53 -109 74 -200 74 -320 0 -305 -195 -572 -487 -667 -67 -21 -99 -26
-195 -26 -63 -1 -146 1 -183 3 -65 5 -70 4 -93 -23 -30 -35 -31 -85 -3 -121
29 -36 48 -43 173 -57 l106 -12 -2 -286 -3 -286 -1232 -3 -1233 -2 0 355 c0
389 -2 402 -57 422 -15 6 -55 15 -88 21 -33 7 -103 33 -155 58 -79 39 -109 62
-180 133 -94 95 -142 174 -181 301 -20 62 -24 96 -23 200 0 113 3 133 31 213
41 116 84 186 168 272 154 157 382 238 582 207 42 -7 78 -13 79 -15 1 -1 -10
-36 -24 -77 -24 -68 -26 -89 -26 -225 0 -138 2 -157 27 -233 36 -107 70 -147
125 -147 29 0 48 7 66 24 39 37 40 63 4 164 -28 80 -32 105 -32 192 0 115 22
190 82 290 120 199 373 354 642 394 41 6 86 13 100 15 51 9 255 -5 338 -23z"/>
<path d="M4584 8030 c-57 -23 -54 35 -54 -1063 l0 -1008 26 -24 27 -25 297 0
298 0 67 69 c112 115 226 160 432 168 376 16 783 -187 783 -390 0 -97 -92
-198 -252 -276 -363 -178 -784 -153 -969 58 -22 25 -50 51 -62 58 -16 9 -122
12 -397 13 -355 0 -377 -1 -407 -20 -54 -32 -55 -86 -6 -230 274 -805 1312
-1198 2169 -822 238 105 475 295 617 494 261 366 299 838 102 1240 -66 133
-139 232 -260 353 -120 121 -237 206 -382 279 -128 64 -183 60 -199 -12 -10
-49 -36 -100 -63 -126 -59 -56 -57 -56 -599 -56 l-499 0 -21 23 c-27 29 -28
77 -3 108 l19 24 301 5 c335 6 332 5 334 75 1 28 -5 42 -22 56 -21 18 -44 19
-303 19 -292 0 -326 5 -342 45 -12 33 -6 72 17 93 22 20 32 21 314 24 286 3
293 3 314 25 32 31 30 80 -5 110 -27 23 -28 23 -310 23 -271 0 -284 1 -310 21
-37 29 -37 89 1 119 26 21 31 21 533 18 l506 -3 43 -28 c44 -29 77 -74 87
-117 12 -52 26 -78 50 -89 17 -8 152 -11 435 -11 437 0 453 2 479 49 6 13 10
141 10 346 0 205 -4 333 -10 346 -28 51 35 49 -1417 48 -741 0 -1358 -4 -1369
-9z"/>
<path d="M8092 3668 l-93 -81 57 -58 57 -58 99 76 c54 41 98 78 98 82 0 8
-113 121 -120 121 -3 0 -47 -37 -98 -82z"/>
<path d="M3367 3410 c-114 -20 -205 -91 -256 -199 -25 -54 -26 -62 -29 -281
-3 -187 -1 -236 13 -287 45 -165 194 -264 377 -250 40 3 90 10 110 16 58 18
130 72 166 125 57 86 64 127 60 393 -3 237 -3 238 -31 294 -69 142 -238 220
-410 189z m159 -201 c26 -12 53 -36 66 -57 22 -35 23 -46 23 -247 0 -192 -2
-213 -20 -244 -31 -53 -67 -74 -134 -79 -74 -5 -123 16 -159 71 -26 40 -27 45
-30 222 -3 114 0 197 8 223 29 111 143 162 246 111z"/>
<path d="M4377 3410 c-175 -28 -270 -135 -269 -305 0 -172 69 -241 277 -281
144 -27 195 -43 222 -70 22 -22 25 -32 20 -72 -4 -33 -12 -53 -31 -69 -78 -67
-281 -54 -407 26 l-46 29 -43 -75 c-49 -87 -48 -91 46 -137 225 -110 522 -78
621 67 76 113 65 286 -24 368 -52 49 -95 65 -293 110 -78 18 -100 27 -127 54
-98 98 28 209 201 177 32 -6 88 -25 123 -42 36 -16 67 -30 69 -30 6 0 74 138
74 150 0 13 -101 64 -167 83 -69 21 -174 28 -246 17z"/>
<path d="M8007 3410 c-114 -20 -205 -91 -256 -199 -26 -56 -26 -56 -26 -311 0
-254 0 -255 26 -310 46 -97 132 -166 238 -190 58 -14 172 -9 233 9 56 17 128
72 165 125 56 81 63 123 63 371 0 200 -2 227 -22 285 -28 85 -108 168 -188
198 -66 24 -167 34 -233 22z m159 -201 c26 -12 53 -36 66 -57 22 -35 23 -46
23 -247 0 -192 -2 -213 -20 -244 -31 -53 -67 -74 -134 -79 -74 -5 -123 16
-159 71 -26 40 -27 45 -30 222 -3 114 0 197 8 223 29 111 143 162 246 111z"/>
<path d="M2160 2906 l0 -506 95 0 95 0 0 194 0 194 153 4 c131 3 159 7 202 26
101 46 162 135 172 251 12 138 -44 242 -162 301 l-69 35 -243 3 -243 4 0 -506z
m458 309 c34 -8 62 -62 62 -120 0 -100 -41 -125 -210 -125 l-120 0 0 124 c0
74 4 126 10 128 16 5 232 -1 258 -7z"/>
<path d="M5137 3404 c-4 -4 -7 -232 -7 -506 l0 -498 100 0 100 0 -2 503 -3
502 -90 3 c-50 1 -94 0 -98 -4z"/>
<path d="M5765 3398 c-3 -7 -6 -109 -7 -227 l-3 -213 -45 -18 -45 -18 -3 -91
c-1 -50 -1 -91 2 -91 2 0 25 9 50 20 l46 19 0 -189 0 -190 340 0 340 0 0 90 0
90 -245 0 -245 0 0 138 0 139 108 46 107 45 5 91 c3 50 2 91 -1 91 -4 0 -52
-20 -107 -44 -56 -24 -104 -41 -107 -38 -3 3 -5 86 -5 184 l0 178 -90 0 c-63
0 -92 -4 -95 -12z"/>
<path d="M6697 3403 c-4 -3 -7 -231 -7 -505 l0 -498 95 0 95 0 0 108 0 108 68
97 c37 53 71 95 76 94 5 -2 61 -94 125 -205 l116 -202 113 0 114 0 -20 33
c-35 58 -157 269 -241 415 l-82 143 145 203 c80 112 146 206 146 209 0 4 -51
7 -114 7 l-114 0 -163 -247 -164 -248 -3 248 -2 247 -89 0 c-48 0 -91 -3 -94
-7z"/>
<path d="M8665 3383 c4 -15 22 -95 41 -178 18 -82 67 -296 109 -475 41 -179
75 -326 75 -327 0 -2 40 -3 89 -3 77 0 90 3 95 18 4 14 72 271 158 595 11 43
23 75 27 72 3 -4 44 -158 91 -343 l85 -337 90 -3 90 -3 113 493 c62 271 112
499 112 506 0 14 -175 18 -184 4 -5 -8 -23 -98 -92 -454 -20 -109 -40 -198
-43 -198 -3 0 -35 103 -70 228 -35 125 -77 273 -94 330 l-30 103 -75 -3 -75
-3 -96 -334 c-52 -183 -97 -327 -100 -320 -2 8 -32 158 -66 334 l-61 320 -98
3 -98 3 7 -28z"/>
<path d="M2568 1804 c-5 -4 -8 -232 -8 -506 l0 -500 233 4 232 3 65 31 c90 43
124 75 162 152 l33 67 3 209 c5 298 -12 365 -114 455 -78 68 -140 82 -389 88
-115 3 -213 2 -217 -3z m442 -206 c75 -38 80 -58 80 -299 0 -197 -1 -207 -23
-240 -38 -58 -95 -79 -214 -79 l-103 0 0 320 0 320 108 0 c92 0 114 -3 152
-22z"/>
<path d="M3544 1797 c-3 -8 -4 -49 -2 -93 l3 -79 197 -5 197 -5 -205 -323
-204 -323 0 -85 0 -84 325 0 325 0 0 90 0 90 -210 0 c-115 0 -210 3 -210 6 0
3 92 151 205 329 l206 324 -3 83 -3 83 -308 3 c-251 2 -308 0 -313 -11z"/>
<path d="M4487 1804 c-4 -4 -7 -232 -7 -506 l0 -498 100 0 100 0 -2 503 -3
502 -90 3 c-50 1 -94 0 -98 -4z"/>
<path d="M5020 1305 l0 -505 335 0 335 0 0 90 0 90 -240 0 -240 0 0 115 0 115
205 0 205 0 0 90 0 90 -205 0 -205 0 0 115 0 115 240 0 240 0 0 95 0 95 -335
0 -335 0 0 -505z"/>
<path d="M5984 1801 c-2 -2 -4 -229 -4 -503 l0 -498 90 0 90 0 2 358 3 357
177 -357 176 -358 116 0 116 0 -2 501 -3 501 -85 0 -85 0 -5 -363 -5 -363 -92
190 c-50 104 -129 266 -174 359 -45 94 -83 171 -85 173 -3 5 -225 8 -230 3z"/>
<path d="M7104 1801 c-2 -2 -4 -229 -4 -503 l0 -498 90 0 90 0 2 358 3 357
177 -357 177 -358 115 0 116 0 -2 501 -3 501 -85 0 -85 0 -5 -363 -5 -363
-176 362 -176 363 -113 2 c-61 1 -114 0 -116 -2z"/>
<path d="M8230 1305 l0 -505 95 0 95 0 0 505 0 505 -95 0 -95 0 0 -505z"/>
<path d="M8780 1305 l0 -505 335 0 335 0 0 90 0 90 -240 0 -240 0 0 115 0 115
205 0 205 0 0 90 0 90 -205 0 -205 0 0 115 0 115 240 0 240 0 0 95 0 95 -335
0 -335 0 0 -505z"/>
</g>
</svg>
