<?xml version="1.0" standalone="no"?>
<!DOCTYPE svg PUBLIC "-//W3C//DTD SVG 20010904//EN"
 "http://www.w3.org/TR/2001/REC-SVG-20010904/DTD/svg10.dtd">
<svg version="1.0" xmlns="http://www.w3.org/2000/svg"
 width="320.000000pt" height="96.000000pt" viewBox="0 0 320.000000 96.000000"
 preserveAspectRatio="xMidYMid meet">

<g transform="translate(0.000000,96.000000) scale(0.100000,-0.100000)"
fill="#000000" stroke="none">
<path d="M2500 831 l-65 -6 106 -7 c179 -13 279 -56 279 -121 0 -101 -187
-221 -507 -327 -205 -67 -412 -109 -668 -134 -22 -2 31 -3 118 -2 l158 3 -6
-29 c-3 -15 -8 -41 -11 -58 l-6 -30 229 0 c125 0 257 5 293 10 173 27 332 164
356 307 6 35 13 42 91 87 46 28 104 71 128 98 38 39 45 54 45 87 0 31 -6 44
-26 60 -74 58 -277 83 -514 62z m34 -482 c-52 -56 -94 -69 -229 -68 l-120 0
130 34 c72 18 148 40 170 49 22 8 49 15 59 15 17 1 16 -3 -10 -30z"/>
<path d="M539 756 c-116 -31 -189 -105 -197 -200 -5 -63 13 -103 63 -141 61
-47 109 -55 336 -55 114 0 214 -3 223 -6 23 -9 20 -40 -6 -58 -19 -14 -69 -16
-345 -16 -298 0 -322 -1 -327 -17 -4 -17 -26 -132 -26 -141 0 -2 154 -2 343 0
319 3 345 5 393 24 76 31 120 69 150 130 46 93 19 179 -69 227 -39 20 -59 22
-277 27 -227 5 -235 6 -235 25 0 20 8 20 338 23 273 2 337 0 337 -11 0 -12
-61 -350 -76 -420 l-6 -27 100 0 100 0 16 92 c9 51 19 105 22 121 l6 27 238 0
237 0 7 51 c4 29 10 65 13 80 l6 29 -238 0 c-212 0 -236 2 -231 16 3 9 6 22 6
30 0 12 78 14 519 14 319 0 530 -4 546 -10 14 -5 37 -21 50 -36 l24 -25 53 34
c29 19 65 48 81 64 l28 30 -21 26 c-30 38 -102 78 -169 93 -79 19 -1943 19
-2012 0z"/>
<path d="M1966 493 c-21 -107 -28 -152 -25 -165 4 -13 17 -12 99 6 l95 21 12
48 c6 26 13 62 15 80 l3 32 -97 3 -96 3 -6 -28z"/>
</g>
</svg>
