<?xml version="1.0" standalone="no"?>
<!DOCTYPE svg PUBLIC "-//W3C//DTD SVG 20010904//EN"
 "http://www.w3.org/TR/2001/REC-SVG-20010904/DTD/svg10.dtd">
<svg version="1.0" xmlns="http://www.w3.org/2000/svg"
 width="1069.000000pt" height="392.000000pt" viewBox="0 0 1069.000000 392.000000"
 preserveAspectRatio="xMidYMid meet">

<g transform="translate(0.000000,392.000000) scale(0.100000,-0.100000)"
fill="#000000" stroke="none">
<path d="M10190 3420 c0 -17 7 -20 50 -20 l50 0 0 -125 0 -125 25 0 25 0 0
125 0 125 45 0 c38 0 45 3 45 20 0 19 -7 20 -120 20 -113 0 -120 -1 -120 -20z"/>
<path d="M10480 3295 c0 -138 1 -145 20 -145 19 0 20 7 21 108 l0 107 21 -67
c16 -52 25 -68 39 -68 11 0 19 1 19 3 0 1 11 34 24 72 l25 70 -6 -112 -6 -113
26 0 27 0 0 145 0 145 -30 0 c-28 0 -30 -4 -53 -77 l-24 -78 -23 78 c-22 73
-25 77 -51 77 l-29 0 0 -145z"/>
<path d="M5205 3279 c-291 -20 -552 -135 -744 -329 -159 -159 -267 -375 -287
-577 l-7 -63 270 0 271 0 16 65 c45 181 154 320 313 400 228 114 526 71 768
-110 33 -25 62 -45 66 -45 5 0 254 296 287 341 11 15 3 24 -62 72 -247 180
-565 268 -891 246z"/>
<path d="M9025 3280 c-238 -38 -419 -131 -529 -274 -139 -178 -152 -464 -31
-643 l36 -53 607 1 607 1 -50 24 c-27 13 -115 45 -195 70 -80 25 -194 61 -255
80 -189 59 -264 118 -272 212 -18 211 343 213 781 4 66 -31 121 -52 123 -47 2
6 46 98 98 205 109 224 112 195 -29 266 -106 55 -256 105 -391 134 -114 24
-400 35 -500 20z"/>
<path d="M6350 2790 l0 -480 738 0 739 0 59 38 c79 52 139 119 177 200 31 64
32 72 32 193 0 124 0 125 -38 201 -88 178 -288 288 -578 318 -56 5 -332 10
-615 10 l-514 0 0 -480z m1096 43 c83 -44 121 -117 111 -211 -8 -73 -45 -127
-112 -161 -49 -26 -54 -26 -307 -29 l-258 -3 0 216 0 216 263 -3 c248 -3 264
-4 303 -25z"/>
<path d="M3150 2401 c0 -49 6 -51 122 -51 110 0 110 0 104 23 -3 12 -6 28 -6
35 0 9 -29 12 -110 12 -102 0 -110 -1 -110 -19z"/>
<path d="M4177 2183 c-2 -5 0 -44 4 -88 39 -352 254 -658 574 -818 176 -88
327 -122 540 -121 269 1 572 87 806 229 l59 36 0 385 0 384 -292 -2 -292 -3
-43 -185 c-23 -102 -43 -193 -43 -202 0 -16 12 -18 105 -18 l105 0 0 -41 c0
-39 -2 -41 -53 -64 -159 -70 -327 -92 -459 -60 -243 59 -419 250 -462 500
l-12 70 -266 3 c-147 1 -269 -1 -271 -5z"/>
<path d="M6360 1684 l0 -505 623 4 c605 3 624 4 707 25 185 49 342 150 419
271 126 196 97 483 -66 651 l-59 60 -812 0 -812 0 0 -506z m1055 355 c153 -28
238 -125 220 -247 -12 -84 -53 -134 -140 -174 -48 -22 -62 -23 -327 -26 l-278
-3 0 230 0 231 233 0 c128 0 260 -5 292 -11z"/>
<path d="M8700 2176 c25 -24 187 -82 370 -135 201 -56 262 -78 325 -115 112
-66 137 -184 55 -266 -142 -142 -570 -57 -897 179 l-82 59 -101 -195 c-55
-107 -100 -199 -100 -205 0 -13 13 -23 101 -82 148 -99 359 -186 553 -228 138
-29 429 -32 556 -5 168 36 333 120 422 213 184 194 208 523 52 734 l-44 60
-612 0 c-523 0 -610 -2 -598 -14z"/>
<path d="M1790 2060 l0 -50 110 0 110 0 0 50 0 50 -110 0 -110 0 0 -50z"/>
<path d="M3157 2103 c-4 -3 -7 -21 -7 -40 l0 -33 110 0 c98 0 110 2 110 18 0
9 3 27 6 40 6 22 6 22 -103 22 -60 0 -113 -3 -116 -7z"/>
<path d="M4259 837 c-156 -83 -77 -315 101 -294 27 3 63 13 79 22 29 15 31 19
31 75 l0 60 -44 0 c-37 0 -45 -4 -50 -22 -9 -34 -8 -38 9 -38 20 0 19 -16 -1
-24 -64 -24 -124 16 -124 84 0 55 34 90 88 90 21 0 47 -6 58 -14 17 -13 22
-12 42 6 31 29 28 36 -20 58 -58 26 -115 25 -169 -3z"/>
<path d="M4894 841 c-92 -42 -117 -165 -48 -241 64 -70 170 -79 238 -19 45 39
60 78 54 140 -11 110 -133 171 -244 120z m136 -71 c58 -58 22 -160 -57 -160
-49 0 -83 37 -83 90 0 30 6 47 25 65 31 31 86 34 115 5z"/>
<path d="M5484 847 c-2 -7 -3 -78 -2 -157 l3 -145 105 0 105 0 3 32 3 32 -68
3 -68 3 -3 123 -3 122 -35 0 c-19 0 -37 -6 -40 -13z"/>
<path d="M6035 848 c-3 -8 -4 -79 -3 -158 l3 -145 90 1 c101 1 136 13 179 64
21 26 26 42 26 88 0 68 -24 113 -72 138 -45 24 -215 33 -223 12z m190 -83 c19
-18 25 -35 25 -65 0 -58 -33 -90 -95 -90 l-45 0 0 90 0 90 45 0 c35 0 52 -6
70 -25z"/>
<path d="M6680 700 l0 -161 123 3 122 3 0 30 0 30 -82 3 -83 3 0 29 0 30 70 0
70 0 0 30 0 30 -70 0 -70 0 0 30 0 30 80 0 80 0 0 35 0 35 -120 0 -120 0 0
-160z"/>
<path d="M7280 700 l0 -160 35 0 34 0 3 95 3 95 70 -93 c60 -79 75 -92 103
-95 l32 -3 0 160 0 161 -35 0 -35 0 0 -97 0 -97 -72 97 c-66 88 -75 97 -105
97 l-33 0 0 -160z"/>
<path d="M8330 701 l0 -161 73 0 c100 1 158 14 179 40 26 32 23 82 -6 109 -24
22 -24 23 -5 42 27 27 24 71 -7 100 -22 21 -36 24 -130 27 l-104 4 0 -161z
m166 85 c30 -23 7 -50 -45 -54 -41 -3 -41 -3 -41 32 0 34 2 36 33 36 18 0 42
-6 53 -14z m-6 -115 c18 -5 25 -14 25 -31 0 -23 -4 -25 -52 -28 l-53 -3 0 35
c0 33 2 36 28 35 15 -1 38 -4 52 -8z"/>
<path d="M9030 849 c-90 -36 -129 -153 -77 -230 27 -41 98 -79 146 -79 51 0
117 36 143 78 28 46 29 116 2 163 -36 63 -142 96 -214 68z m125 -84 c56 -55
18 -155 -59 -155 -40 0 -86 46 -86 86 0 82 90 125 145 69z"/>
<path d="M9571 853 c0 -5 24 -75 52 -158 l52 -150 40 0 40 0 30 105 29 104 19
-64 c44 -156 38 -145 81 -145 l39 0 49 145 c26 79 48 150 48 158 0 9 -11 12
-37 10 l-38 -3 -27 -103 c-15 -57 -28 -106 -31 -108 -2 -2 -17 44 -33 103
l-29 108 -39 0 -39 0 -28 -104 c-15 -57 -30 -105 -32 -107 -2 -3 -17 45 -32
106 l-29 110 -43 0 c-24 0 -43 -3 -42 -7z"/>
<path d="M5557 248 c-30 -11 -43 -43 -33 -82 5 -19 20 -30 63 -46 74 -27 87
-45 57 -74 -19 -20 -60 -20 -98 -1 -27 14 -46 13 -46 -4 0 -4 18 -16 40 -26
71 -32 150 -1 150 60 0 29 -24 49 -85 72 -37 14 -51 24 -53 41 -5 31 35 48 79
33 42 -14 49 -14 49 3 0 14 -50 37 -79 35 -9 0 -28 -5 -44 -11z"/>
<path d="M5943 240 c-101 -51 -93 -191 13 -229 112 -40 217 65 167 166 -36 73
-109 98 -180 63z m136 -45 c39 -38 36 -98 -7 -136 -68 -61 -172 -16 -172 74 0
29 34 75 64 88 33 14 88 2 115 -26z"/>
<path d="M6340 130 l0 -130 70 0 c56 0 70 3 70 15 0 12 -13 15 -60 15 l-60 0
0 115 c0 70 -4 115 -10 115 -6 0 -10 -50 -10 -130z"/>
<path d="M6667 253 c-14 -13 -7 -165 8 -198 36 -75 154 -75 190 1 19 41 18
195 -2 202 -10 3 -13 -19 -13 -86 0 -111 -18 -142 -80 -142 -62 0 -80 32 -80
141 0 82 -5 100 -23 82z"/>
<path d="M7060 245 c0 -11 11 -15 40 -15 l40 0 0 -115 c0 -96 3 -115 15 -115
12 0 15 19 15 115 l0 115 40 0 c29 0 40 4 40 15 0 12 -17 15 -95 15 -78 0 -95
-3 -95 -15z"/>
<path d="M7447 253 c-4 -3 -7 -62 -7 -130 0 -103 2 -123 15 -123 13 0 15 21
15 130 0 119 -4 142 -23 123z"/>
<path d="M7743 241 c-132 -60 -71 -255 74 -238 141 16 158 208 22 247 -44 13
-47 13 -96 -9z m108 -27 c36 -18 59 -67 52 -107 -3 -15 -19 -38 -35 -52 -89
-75 -218 38 -147 129 36 46 80 56 130 30z"/>
<path d="M8137 254 c-4 -4 -7 -63 -7 -131 0 -101 3 -123 15 -123 11 0 15 20
17 102 l3 102 75 -102 c45 -60 81 -101 90 -99 12 2 15 24 15 126 0 89 -3 125
-12 128 -9 3 -13 -23 -15 -99 l-3 -103 -75 99 c-74 98 -90 113 -103 100z"/>
<path d="M8610 253 c-55 -20 -67 -78 -24 -112 15 -12 33 -21 40 -21 26 0 64
-23 70 -43 13 -42 -54 -61 -110 -32 -44 23 -57 1 -15 -24 68 -41 159 -14 159
48 0 35 -21 54 -85 78 -37 14 -51 24 -53 41 -5 31 35 48 79 33 42 -14 49 -14
49 3 0 24 -72 43 -110 29z"/>
</g>
</svg>
