<?xml version="1.0" standalone="no"?>
<!DOCTYPE svg PUBLIC "-//W3C//DTD SVG 20010904//EN"
 "http://www.w3.org/TR/2001/REC-SVG-20010904/DTD/svg10.dtd">
<svg version="1.0" xmlns="http://www.w3.org/2000/svg"
 width="535.000000pt" height="288.000000pt" viewBox="0 0 535.000000 288.000000"
 preserveAspectRatio="xMidYMid meet">

<g transform="translate(0.000000,288.000000) scale(0.100000,-0.100000)"
fill="#000000" stroke="none">
<path d="M650 1445 l0 -675 2015 0 2015 0 0 675 0 675 -2015 0 -2015 0 0 -675z
m3119 409 c26 -22 31 -33 31 -71 0 -80 -77 -132 -146 -99 -58 27 -71 95 -27
146 46 56 95 64 142 24z m-1169 -23 c0 -5 -9 -53 -20 -106 -11 -53 -20 -99
-20 -101 0 -2 24 -4 53 -4 30 0 56 -2 59 -5 3 -3 -2 -39 -10 -80 l-15 -74 -61
-3 -61 -3 -22 -105 c-12 -58 -22 -120 -23 -137 0 -31 2 -33 33 -33 18 0 38 5
45 12 16 16 22 -4 25 -78 l2 -59 -39 -19 c-85 -41 -173 -30 -224 29 -44 49
-47 91 -17 236 14 68 28 132 31 142 4 14 -1 17 -35 17 -46 0 -46 -2 -23 90 17
63 18 65 52 68 41 4 47 11 55 75 4 26 12 53 19 58 11 11 175 87 189 88 4 1 7
-3 7 -8z m-1070 -51 c81 -46 111 -138 71 -225 -17 -39 -83 -107 -112 -117 -10
-3 -4 -14 20 -34 40 -34 71 -95 71 -144 0 -49 -42 -133 -82 -163 -19 -15 -56
-37 -84 -49 -45 -21 -66 -23 -266 -26 -193 -3 -218 -2 -218 12 0 16 147 740
155 764 4 11 45 13 202 10 190 -3 200 -4 243 -28z m2010 24 c0 -18 -152 -743
-160 -761 -9 -21 -16 -23 -93 -23 -46 0 -86 2 -89 6 -3 3 0 33 8 67 7 34 43
204 79 377 36 173 67 321 70 328 3 8 32 12 95 12 49 0 90 -3 90 -6z m-1448
-190 c25 -8 64 -31 86 -50 40 -33 92 -122 92 -155 0 -12 -50 -38 -177 -94 -98
-43 -198 -87 -222 -98 -51 -23 -41 -37 27 -37 41 0 89 18 122 45 13 10 24 2
72 -50 l58 -62 -39 -27 c-187 -130 -431 -70 -486 119 -20 68 -14 126 20 201
74 165 286 263 447 208z m1084 -12 c23 -12 56 -33 73 -48 38 -31 35 -36 -49
-88 l-59 -37 -38 21 c-21 11 -49 20 -63 20 -68 -1 -159 -75 -179 -146 -33
-118 73 -184 188 -118 l45 25 53 -53 c29 -29 53 -57 53 -63 0 -18 -94 -73
-155 -90 -250 -73 -455 152 -346 380 28 59 109 147 161 175 98 53 237 63 316
22z m1122 -7 c48 -26 101 -71 91 -78 -2 -2 -34 -22 -71 -46 l-66 -42 -38 20
c-21 12 -50 21 -64 21 -68 -1 -159 -75 -179 -146 -33 -118 73 -184 188 -118
l45 25 53 -53 c29 -29 53 -57 53 -63 0 -18 -94 -73 -155 -90 -113 -33 -245 0
-310 77 -119 140 -71 348 107 465 102 68 250 80 346 28z m-538 21 c0 -15 -120
-578 -125 -586 -6 -10 -167 -14 -177 -5 -6 6 107 569 117 586 6 9 185 13 185
5z"/>
<path d="M1244 1613 c-3 -16 -10 -44 -15 -63 -5 -19 -9 -38 -9 -42 0 -5 25 -8
55 -8 87 0 135 33 135 94 0 34 -26 46 -99 46 -58 0 -61 -1 -67 -27z"/>
<path d="M1184 1313 c-3 -16 -10 -44 -15 -63 -15 -58 -13 -60 44 -60 75 0 122
16 151 51 56 67 27 99 -90 99 -83 0 -84 0 -90 -27z"/>
<path d="M1905 1444 c-43 -22 -74 -53 -96 -96 l-19 -38 57 26 c32 14 85 37
118 51 100 42 100 42 78 58 -24 19 -101 19 -138 -1z"/>
</g>
</svg>
